<svg id="Layer_1" data-name="Layer 1" xmlns="http://www.w3.org/2000/svg" viewBox="0 0 122.88 70.64"><defs><style>.cls-1{fill:#1b9c28;}</style></defs><title>vegetarian</title><path class="cls-1" d="M61.44,0a61.46,61.46,0,0,1,61.44,61.44c0,1.16,0,2.37-.11,3.63s-.18,2.46-.32,3.63a2.19,2.19,0,0,1-2.17,1.94H74.15c4.59-6.84,6.72-17.09,5.47-31.31C62.11,45.4,37.75,43.44,37.15,70.64H2.6a2.18,2.18,0,0,1-2.18-2C.29,67.45.18,66.28.11,65.07S0,62.6,0,61.44A61.46,61.46,0,0,1,61.44,0ZM49,70.64H45.46c7.26-11,21.36-15.65,28.69-24.12C66.58,61.28,60.21,63.87,49,70.64ZM24.86,46,12.62,43.76l1.45-2.89,8.65,1.83-6.61-5.87L17.55,34l9.06,8.53L24.86,46Zm6-8.9a7.13,7.13,0,0,1-.67.64,3.22,3.22,0,0,1-.95.56,2.25,2.25,0,0,1-1.19.08,3.08,3.08,0,0,1-1.4-.77l-4.71-4.09A3.46,3.46,0,0,1,21,32.33a2.45,2.45,0,0,1-.22-1.13,2.68,2.68,0,0,1,.28-1,3.78,3.78,0,0,1,.57-.86c.59-.68,1.11-1.26,1.56-1.73s.83-.88,1.17-1.21.64-.63.91-.88l2,1.73-2.83,3.24a1,1,0,0,0-.26.58.64.64,0,0,0,.26.51l.75.65,3-3.15L30,30.67,27.31,34l.68.59a1.08,1.08,0,0,0,.41.25.66.66,0,0,0,.37,0,.63.63,0,0,0,.3-.21L32,31.31,34,33c-.26.39-.56.82-.91,1.3L32,35.75l-1.1,1.32Zm6.59-6.3a3.05,3.05,0,0,1-1.75.67A3.09,3.09,0,0,1,34.05,31a6.65,6.65,0,0,1-1.55-1.24A16.2,16.2,0,0,1,31,28a15.64,15.64,0,0,1-1.31-2.14,5.37,5.37,0,0,1-.58-2,3.17,3.17,0,0,1,.42-1.83,5.51,5.51,0,0,1,1.67-1.74c.52-.37,1-.66,1.37-.89a10.45,10.45,0,0,1,1.16-.58l1.18-.47,1.42,2c-.22.11-.48.25-.79.44s-.66.4-1,.64-.77.52-1.18.81a2.72,2.72,0,0,0-1,1,1.43,1.43,0,0,0,.11,1.16,10.49,10.49,0,0,0,1.06,1.73,11.91,11.91,0,0,0,1,1.26,2.78,2.78,0,0,0,.77.62,1,1,0,0,0,.66.1,1.51,1.51,0,0,0,.63-.3,8,8,0,0,0,.83-.66c.23-.21.4-.38.51-.5l-.9-1.25-1.34,1-1.44-2c.17-.17.38-.35.63-.56l.79-.64.76-.57c.32-.23.59-.43.84-.59l.67-.46,4.14,5.75-1.91,1.37-.8-.39a6,6,0,0,1-.64,1.16,5.43,5.43,0,0,1-1.31,1.31Zm8.67-5.13a7,7,0,0,1-.89.26,3.35,3.35,0,0,1-1.1.06,2.27,2.27,0,0,1-1.1-.47,3.15,3.15,0,0,1-.89-1.33l-2.3-5.79a3.4,3.4,0,0,1-.28-1.45,2.4,2.4,0,0,1,.32-1.1,2.72,2.72,0,0,1,.72-.79,4.36,4.36,0,0,1,.91-.51c.83-.33,1.56-.6,2.17-.82l1.6-.54c.45-.15.86-.27,1.21-.36l1,2.45-4,1.59a1,1,0,0,0-.51.39.67.67,0,0,0,0,.57l.36.92,4.08-1.45.91,2.3-4,1.75.33.83a1.07,1.07,0,0,0,.26.41.52.52,0,0,0,.33.16.74.74,0,0,0,.36,0L49.76,21l1,2.45c-.4.22-.87.47-1.4.73L47.69,25c-.56.25-1.09.47-1.58.67ZM54,23.23l-1.67-9-3,.55L48.85,12l9-1.66.51,2.74-2.95.55,1.67,9L54,23.23Zm5.1-1.17,4.43-11.63,3.88.3L70,22.9l-3.22-.25-.34-1.93-3.57-.27-.61,1.86-3.19-.25Zm4.73-4.34,2.13.16-.72-4.66-1.41,4.5ZM70.36,23l3.93-11.27L79.1,13.4a5.46,5.46,0,0,1,1.3.66,2.81,2.81,0,0,1,.86,1,2.87,2.87,0,0,1,.3,1.41,5.94,5.94,0,0,1-.39,1.92,5.34,5.34,0,0,1-.54,1.17,3.31,3.31,0,0,1-.63.76,2.45,2.45,0,0,1-.7.43,3.27,3.27,0,0,1-.74.21L79,26l-3-1-.22-4.43-.28-.1-.28-.1-.28-.1-.28-.09L73.3,24l-2.94-1Zm5.11-5.19,1.34.47a1.53,1.53,0,0,0,.45.08.87.87,0,0,0,.38-.11,1.24,1.24,0,0,0,.33-.32,3.16,3.16,0,0,0,.26-.55,2.58,2.58,0,0,0,.13-.58,1,1,0,0,0-.06-.43.86.86,0,0,0-.25-.29,1.08,1.08,0,0,0-.4-.21l-1.34-.47-.84,2.41Zm4,8.51,5.37-10.66,2.78,1.4L82.29,27.71l-2.78-1.4Zm3.23,1.42,10.1-7.28,3.07,2.38-4.5,11.6-2.56-2,.78-1.79L86.8,28.47l-1.53,1.21-2.53-1.95Zm6.34-1L90.77,28l2-4.3-3.65,3Zm2.54,8.12,9.68-7,1.45,2-3,7.28,5.4-3.88L107,35.79l-9.69,7-1.44-2,3-7.29-5.4,3.89-1.82-2.53ZM61.44,28A33.43,33.43,0,0,1,94.87,61.44a32.65,32.65,0,0,1-.21,3.7c0,.38-.09.76-.14,1.13h23.79c0-.49.07-1,.1-1.46.06-1.06.1-2.18.1-3.37a57.07,57.07,0,0,0-114.14,0c0,1.19,0,2.31.1,3.37,0,.49.06,1,.1,1.46H28.36c-.05-.37-.1-.75-.14-1.13a32.65,32.65,0,0,1-.21-3.7A33.43,33.43,0,0,1,61.44,28Z"/></svg>